<svg xmlns="http://www.w3.org/2000/svg" width="19" height="17" viewBox="0 0 19 17" fill="none">
  <path d="M14.7031 0.642578L13.5781 6.26758L9.07812 16.3926L18.0781 5.70508L14.7031 0.642578ZM3.45312 0.642578L4.57812 6.26758L9.07812 16.3926L0.078125 5.70508L3.45312 0.642578Z" fill="#0D79A7"/>
  <path d="M3.45312 0.642578L4.57812 6.26758L9.07812 16.3926L13.5781 6.26758L14.7031 0.642578H3.45312Z" fill="#49A3C9"/>
  <path d="M9.07812 16.3926L4.57812 6.26758L0.078125 5.70508L9.07812 16.3926ZM9.07812 16.3926L13.5781 6.26758L18.0781 5.70508L9.07812 16.3926Z" fill="#07425B"/>
  <path d="M9.07817 6.82863L4.57812 6.26758L9.07812 16.3926L13.5781 6.26758L9.07817 6.82863Z" fill="#0D79A7"/>
  <path d="M4.57812 6.26758L9.07817 0.642578L13.5781 6.26758L9.07704 6.83008L4.57812 6.26758Z" fill="#95D5F0"/>
  <path d="M4.57812 6.26758L3.45312 0.642578H9.07817L4.57812 6.26758ZM13.5781 6.26758L14.7031 0.642578H9.07817L13.5781 6.26758Z" fill="#49A3C9"/>
  <path d="M4.57812 6.26758L3.45312 0.642578L0.078125 5.70508L4.57812 6.26758ZM13.5781 6.26758L14.7031 0.642578L18.0781 5.70508L13.5781 6.26758Z" fill="#0D79A7"/>
</svg>