<svg xmlns="http://www.w3.org/2000/svg" width="19" height="19" viewBox="0 0 19 19" fill="none">
  <path d="M14.3281 0.109375H5.07812C2.5346 0.109375 0.453125 2.1908 0.453125 4.73426V13.9845C0.453125 16.5273 2.5346 18.6094 5.07812 18.6094H14.3281C16.8716 18.6094 18.9531 16.5273 18.9531 13.9845V4.73426C18.9531 2.1908 16.8716 0.109375 14.3281 0.109375ZM17.4114 13.9845C17.4114 15.6841 16.0288 17.0677 14.3281 17.0677H5.07812C3.37821 17.0677 1.99487 15.6841 1.99487 13.9845V4.73426C1.99487 3.03416 3.37821 1.65108 5.07812 1.65108H14.3281C16.0288 1.65108 17.4114 3.03416 17.4114 4.73426V13.9845Z" fill="#1F1658"/>
  <path d="M14.7141 5.505C15.3527 5.505 15.8703 4.98734 15.8703 4.34878C15.8703 3.71022 15.3527 3.19256 14.7141 3.19256C14.0755 3.19256 13.5578 3.71022 13.5578 4.34878C13.5578 4.98734 14.0755 5.505 14.7141 5.505Z" fill="#1F1658"/>
  <path d="M9.70292 4.73426C7.14806 4.73426 5.07792 6.80458 5.07792 9.35915C5.07792 11.9128 7.14806 13.9845 9.70292 13.9845C12.2571 13.9845 14.3279 11.9128 14.3279 9.35915C14.3279 6.80458 12.2571 4.73426 9.70292 4.73426ZM9.70292 12.4428C8.0002 12.4428 6.61966 11.0623 6.61966 9.35915C6.61966 7.65603 8.0002 6.27597 9.70292 6.27597C11.4056 6.27597 12.7862 7.65603 12.7862 9.35915C12.7862 11.0623 11.4056 12.4428 9.70292 12.4428Z" fill="#1F1658"/>
</svg>