<svg xmlns="http://www.w3.org/2000/svg" width="21" height="21" viewBox="0 0 21 21" fill="none">
  <path d="M6.03927 19.6094H6.53927V19.1094V6.96481V6.46481H6.03927H2.18077H1.68077V6.96481V19.1094V19.6094H2.18077H6.03927ZM6.79357 3.20773H6.79368L6.79346 3.19721C6.77858 2.48984 6.52813 1.83786 6.05605 1.3602C5.58132 0.879865 4.91547 0.609375 4.13605 0.609375C3.35833 0.609375 2.68209 0.878652 2.1985 1.35574C1.7155 1.83224 1.45312 2.48829 1.45312 3.20773C1.45312 4.63969 2.50477 5.80567 4.08533 5.80567H4.11052C4.90312 5.80567 5.58053 5.52849 6.06075 5.04669C6.53911 4.56676 6.79357 3.91192 6.79357 3.20773ZM7.67493 19.1071L7.67262 19.6094H8.17493H12.0334H12.5334V19.1094V12.3273C12.5334 11.9661 12.5616 11.6884 12.6258 11.525L12.6271 11.5217C12.8641 10.9055 13.3586 10.3659 14.14 10.3659C14.6809 10.3659 15.0064 10.5685 15.222 10.8997C15.4599 11.265 15.5948 11.8384 15.5948 12.6122V19.1093V19.6093H16.0948H19.9531H20.4531V19.1093V12.1457C20.4531 10.1999 19.9564 8.70151 19.0591 7.68326C18.1557 6.65798 16.8989 6.17969 15.5108 6.17969C14.3634 6.17969 13.5104 6.51812 12.872 6.98977C12.7508 7.07936 12.6382 7.17309 12.5335 7.26914V6.96455V6.46455H12.0335H8.17502H7.65231L7.67551 6.98675C7.70015 7.54126 7.70034 10.5592 7.69396 13.4632C7.69079 14.9097 7.68603 16.3207 7.68206 17.3701C7.68008 17.8948 7.6783 18.3291 7.67701 18.6321L7.67549 18.9833L7.67508 19.0755L7.67497 19.0991L7.67494 19.1051L7.67493 19.1066L7.67493 19.1069C7.67493 19.107 7.67493 19.1071 8.17493 19.1094L7.67493 19.1071Z" stroke="#1F1658"/>
</svg>