<svg xmlns="http://www.w3.org/2000/svg" width="25" height="25" viewBox="0 0 25 25" fill="none">
  <path d="M5.45312 6.60913L11.0608 10.7214L11.0628 10.7231C11.741 11.2204 12.0803 11.4692 12.4519 11.5653C12.7804 11.6503 13.1256 11.6503 13.4541 11.5653C13.8261 11.4691 14.1663 11.2196 14.8457 10.7214L20.4533 6.60913M3.95312 15.9093V8.30933C3.95312 7.18922 3.95312 6.62875 4.17111 6.20093C4.36286 5.8246 4.6686 5.51886 5.04492 5.32712C5.47275 5.10913 6.03322 5.10913 7.15332 5.10913H18.7533C19.8734 5.10913 20.4327 5.10913 20.8605 5.32712C21.2368 5.51886 21.5436 5.8246 21.7354 6.20093C21.9531 6.62833 21.9531 7.18812 21.9531 8.30604V15.9127C21.9531 17.0306 21.9531 17.5896 21.7354 18.017C21.5436 18.3933 21.2368 18.6996 20.8605 18.8914C20.4331 19.1091 19.8741 19.1091 18.7562 19.1091H7.15004C6.03212 19.1091 5.47233 19.1091 5.04492 18.8914C4.6686 18.6996 4.36286 18.3933 4.17111 18.017C3.95312 17.5892 3.95312 17.0294 3.95312 15.9093Z" stroke="#1F1658" stroke-width="1.32" stroke-linecap="round" stroke-linejoin="round"/>
</svg>