<svg width="20" height="21" viewBox="0 0 20 21" fill="none" xmlns="http://www.w3.org/2000/svg">
<g id="MEDIUM ICON - 20*20PX" clip-path="url(#clip0_11571_1690)">
<path id="Vector" d="M10.7692 1.26923C10.7692 0.846154 10.4231 0.5 10 0.5C9.57692 0.5 9.23077 0.846154 9.23077 1.26923V9.73077H0.769231C0.346154 9.73077 0 10.0769 0 10.5C0 10.9231 0.346154 11.2692 0.769231 11.2692H9.23077V19.7308C9.23077 20.1538 9.57692 20.5 10 20.5C10.4231 20.5 10.7692 20.1538 10.7692 19.7308V11.2692H19.2308C19.6538 11.2692 20 10.9231 20 10.5C20 10.0769 19.6538 9.73077 19.2308 9.73077H10.7692V1.26923Z" fill="#FF4E41"/>
</g>
<defs>
<clipPath id="clip0_11571_1690">
<rect width="20" height="20" fill="white" transform="translate(0 0.5)"/>
</clipPath>
</defs>
</svg>
