<svg xmlns="http://www.w3.org/2000/svg" width="24" height="22" viewBox="0 0 24 22" fill="none">
  <path d="M21.4531 5.10261C20.6808 5.41832 19.8512 5.63164 18.9791 5.72806C19.879 5.23128 20.5522 4.44941 20.8733 3.52834C20.0277 3.99165 19.1024 4.31778 18.1375 4.49253C17.4886 3.85332 16.629 3.42964 15.6924 3.28727C14.7558 3.1449 13.7944 3.29181 12.9575 3.70518C12.1207 4.11856 11.4551 4.77526 11.0643 5.57337C10.6734 6.37146 10.579 7.26628 10.7959 8.1189C9.08276 8.03954 7.40684 7.62874 5.87693 6.91316C4.34701 6.19757 2.99729 5.1932 1.91534 3.96521C1.54539 4.55396 1.33267 5.23658 1.33267 5.96356C1.33226 6.618 1.50695 7.26244 1.84124 7.83966C2.17552 8.41689 2.65908 8.90906 3.249 9.27252C2.56485 9.25244 1.8958 9.08188 1.29753 8.77507V8.82625C1.29746 9.74415 1.64161 10.6338 2.27158 11.3442C2.90155 12.0547 3.77854 12.5422 4.75375 12.724C4.11909 12.8824 3.4537 12.9058 2.80783 12.7922C3.08298 13.582 3.61894 14.2727 4.34067 14.7675C5.06242 15.2623 5.9338 15.5365 6.83285 15.5517C5.30667 16.657 3.42184 17.2566 1.48158 17.254C1.13788 17.254 0.794471 17.2355 0.453125 17.1985C2.42261 18.3667 4.71522 18.9867 7.05667 18.9844C14.9828 18.9844 19.3157 12.9279 19.3157 7.67521C19.3157 7.50455 19.3111 7.3322 19.3029 7.16153C20.1456 6.59922 20.8731 5.90288 21.4513 5.10517L21.4531 5.10261Z" stroke="#1F1658" stroke-width="1.16667"/>
</svg>