<svg xmlns="http://www.w3.org/2000/svg" width="24" height="24" viewBox="0 0 24 24" fill="none">
  <path d="M15.8174 13.0443L15.8181 13.044C16.107 12.9123 16.5153 12.6205 16.5153 12.1094C16.5153 11.5982 16.107 11.3065 15.8181 11.1747L15.8174 11.1744L10.7662 8.87768L10.7645 8.8769C10.4096 8.71681 9.97901 8.68358 9.60985 8.91278C9.23596 9.14491 9.07812 9.55094 9.07812 9.94631V14.2724C9.07812 14.6679 9.23567 15.0744 9.61021 15.3066C9.97972 15.5357 10.4102 15.5016 10.7645 15.3419L10.7662 15.3411L15.8174 13.0443ZM1.32812 12.1094C1.32812 10.224 1.34198 8.81848 1.52256 7.73856C1.69982 6.67848 2.02396 6.02406 2.57853 5.56876C3.157 5.09383 4.07569 4.75994 5.61227 4.55806C7.14051 4.35728 9.18906 4.29688 11.9531 4.29688C14.7172 4.29688 16.7657 4.35728 18.294 4.55806C19.8306 4.75994 20.7492 5.09383 21.3277 5.56876C21.8823 6.02406 22.2064 6.67848 22.3837 7.73856C22.5643 8.81848 22.5781 10.224 22.5781 12.1094C22.5781 13.9947 22.5643 15.4003 22.3837 16.4802C22.2064 17.5403 21.8823 18.1947 21.3277 18.65C20.7492 19.1249 19.8306 19.4588 18.294 19.6607C16.7657 19.8615 14.7172 19.9219 11.9531 19.9219C9.18906 19.9219 7.14051 19.8615 5.61226 19.6607C4.07569 19.4588 3.157 19.1249 2.57853 18.65C2.02396 18.1947 1.69982 17.5403 1.52256 16.4802C1.34198 15.4003 1.32812 13.9947 1.32812 12.1094Z" stroke="#1F1658" stroke-width="1.25"/>
</svg>